<svg width="18" height="18" viewBox="0 0 18 18" fill="none" xmlns="http://www.w3.org/2000/svg">
<path d="M1.90295 1H16.3502C16.8489 1 17.2531 1.4042 17.2531 1.90283L17.2533 3.33474C17.2534 3.57428 17.1582 3.80399 16.9888 3.97336L11.1969 9.765C11.0276 9.9343 10.9324 10.164 10.9324 10.4035V16.0966C10.9324 16.684 10.3803 17.1151 9.8105 16.9726L8.0046 16.5211C7.60261 16.4206 7.32063 16.0594 7.32063 15.6451V10.4035C7.32063 10.164 7.2255 9.9343 7.05617 9.765L1.26446 3.97331C1.09513 3.80398 1 3.5743 1 3.33483V1.90295C1 1.40427 1.40426 1 1.90295 1Z" stroke="#818080" stroke-linecap="round" stroke-linejoin="round"/>
</svg>
