<svg width="26" height="26" viewBox="0 0 26 26" fill="none" xmlns="http://www.w3.org/2000/svg">
<rect width="26" height="26" rx="4" fill="#E9714F"/>
<path d="M10.4998 7H16.7156C17.3074 7.00004 17.88 7.21001 18.3315 7.59256C18.783 7.97511 19.0842 8.50543 19.1814 9.08917L19.6623 11.9758L20.3373 16.03C20.3571 16.1493 20.3507 16.2714 20.3186 16.388C20.2865 16.5045 20.2294 16.6127 20.1513 16.705C20.0732 16.7973 19.976 16.8715 19.8664 16.9224C19.7567 16.9733 19.6373 16.9998 19.5164 17H5.49976C5.49976 15.4529 6.11434 13.9692 7.2083 12.8752C8.30226 11.7812 9.78599 11.1667 11.3331 11.1667H19.4998" stroke="white" stroke-linecap="round" stroke-linejoin="round"/>
<path d="M12.9998 14.5H13.0073" stroke="white" stroke-linecap="round" stroke-linejoin="round"/>
</svg>
