<svg width="26" height="26" viewBox="0 0 26 26" fill="none" xmlns="http://www.w3.org/2000/svg">
<rect width="26" height="26" rx="4" fill="#E9714F"/>
<rect x="6.69507" y="18.7105" width="13.0488" height="2.78947" rx="0.5" stroke="white"/>
<rect x="9.32935" y="4.5" width="7.78049" height="1.84211" rx="0.5" stroke="white"/>
<rect x="12.4023" y="16.7632" width="8.47368" height="1.63415" rx="0.5" transform="rotate(-90 12.4023 16.7632)" stroke="white"/>
<path d="M7.57324 7.89472C7.57324 7.06629 8.24482 6.39471 9.07324 6.39471H17.3659C18.1944 6.39471 18.8659 7.06629 18.8659 7.89471V18.6579H7.57324V7.89472Z" stroke="white"/>
<path d="M18.4878 7.78949C24.5561 7.78949 21.4053 14.1053 19.0713 17.2632" stroke="white"/>
<path d="M7.5122 8.73682C7.5122 8.73682 5.29617 8.91912 4.17968 8.82797C3.06319 8.73683 7.5122 12.5263 7.5122 12.5263" stroke="white"/>
</svg>
