<svg width="30" height="31" viewBox="0 0 30 31" fill="none" xmlns="http://www.w3.org/2000/svg">
<circle cx="15" cy="15.2054" r="15" fill="#E9714F"/>
<path d="M19.109 14.4066C19.5746 18.7078 21.4025 20.0076 21.4025 20.0076H7C7 20.0076 9.40042 18.3007 9.40042 12.3263C9.40042 10.9681 9.90622 9.66561 10.8066 8.70526C11.7069 7.7449 12.928 7.20538 14.2013 7.20538C14.4711 7.20538 14.7387 7.22963 15.0014 7.27699" stroke="white" stroke-linecap="round" stroke-linejoin="round"/>
<path d="M19.8023 12.0062C21.128 12.0062 22.2027 10.9315 22.2027 9.6058C22.2027 8.28009 21.128 7.20538 19.8023 7.20538C18.4765 7.20538 17.4019 8.28009 17.4019 9.6058C17.4019 10.9315 18.4765 12.0062 19.8023 12.0062Z" stroke="white" stroke-linecap="round" stroke-linejoin="round"/>
<path d="M15.5854 22.4081C15.4447 22.6506 15.2428 22.8519 14.9998 22.9918C14.7569 23.1317 14.4815 23.2054 14.2011 23.2054C13.9208 23.2054 13.6454 23.1317 13.4024 22.9918C13.1595 22.8519 12.9576 22.6506 12.8169 22.4081" stroke="white" stroke-linecap="round" stroke-linejoin="round"/>
</svg>
