<svg width="26" height="27" viewBox="0 0 26 27" fill="none" xmlns="http://www.w3.org/2000/svg">
<rect y="0.929932" width="26" height="26" rx="4" fill="#E9714F"/>
<path d="M20.1228 13.0291C19.7272 9.85069 17.208 7.33144 14.0296 6.9359C13.5484 6.87602 13.1534 7.27485 13.1534 7.75972V11.7104C13.1534 11.9528 13.353 12.1438 13.5879 12.2036C14.2085 12.3616 14.6971 12.8501 14.8551 13.4708C14.9149 13.7057 15.1058 13.9053 15.3482 13.9053H19.299C19.7838 13.9053 20.1827 13.5102 20.1228 13.0291Z" stroke="white" stroke-linecap="round" stroke-linejoin="round"/>
<path d="M8.78117 8.20298C6.22636 10.1347 5.30426 13.5761 6.55092 16.5264C6.73964 16.973 7.28255 17.1157 7.70246 16.8733L11.1239 14.898C11.3339 14.7768 11.3994 14.5084 11.3337 14.2751C11.1602 13.6586 11.3391 12.9913 11.7975 12.5441C11.9711 12.3748 12.0485 12.1097 11.9273 11.8997L9.9519 8.47833C9.70948 8.05842 9.16792 7.91055 8.78117 8.20298Z" stroke="white" stroke-linecap="round" stroke-linejoin="round"/>
<path d="M10.4037 20.379C13.354 21.6257 16.7953 20.7036 18.7271 18.1487C19.0195 17.762 18.8717 17.2205 18.4517 16.9781L15.0303 15.0027C14.8204 14.8814 14.5553 14.9589 14.386 15.1324C13.9389 15.5909 13.2715 15.7697 12.655 15.5962C12.4216 15.5306 12.1534 15.5961 12.0321 15.8061L10.0568 19.2274C9.81431 19.6474 9.95701 20.1903 10.4037 20.379Z" stroke="white" stroke-linecap="round" stroke-linejoin="round"/>
</svg>
