<svg width="30" height="31" viewBox="0 0 30 31" fill="none" xmlns="http://www.w3.org/2000/svg">
<circle cx="15" cy="15.2054" r="15" fill="#E9714F"/>
<path d="M15 23.2054C19.4183 23.2054 23 19.6237 23 15.2054C23 10.7871 19.4183 7.20538 15 7.20538C10.5817 7.20538 7 10.7871 7 15.2054C7 19.6237 10.5817 23.2054 15 23.2054Z" stroke="white"/>
<path d="M18.6663 13.3387C18.0476 12.083 16.6344 11.2054 14.9901 11.2054C12.9108 11.2054 11.2012 12.6087 11 14.4054" stroke="white" stroke-linecap="round" stroke-linejoin="round"/>
<path d="M16.9951 13.3832H18.5201C18.7852 13.3832 19.0001 13.1683 19.0001 12.9032V11.6054" stroke="white" stroke-linecap="round" stroke-linejoin="round"/>
<path d="M11.3337 16.5387C11.9525 18.1084 13.3657 19.2054 15.01 19.2054C17.0893 19.2054 18.7989 17.4513 19.0001 15.2054" stroke="white" stroke-linecap="round" stroke-linejoin="round"/>
<path d="M13.0049 16.5031H11.48C11.2149 16.5031 11 16.7181 11 16.9831V18.7254" stroke="white" stroke-linecap="round" stroke-linejoin="round"/>
</svg>
