<svg width="20" height="22" viewBox="0 0 20 22" fill="none" xmlns="http://www.w3.org/2000/svg">
<path d="M15 7.20987C15 5.83468 14.4732 4.51581 13.5355 3.54339C12.5979 2.57098 11.3261 2.02469 10 2.02469C8.67392 2.02469 7.40215 2.57098 6.46447 3.54339C5.52678 4.51581 5 5.83468 5 7.20987C5 13.2593 2.5 14.9877 2.5 14.9877H17.5C17.5 14.9877 15 13.2593 15 7.20987Z" stroke="#E7D0D0" stroke-linecap="round" stroke-linejoin="round"/>
<path d="M11.4417 18.4445C11.2952 18.7064 11.0849 18.9238 10.8319 19.0749C10.5789 19.226 10.292 19.3056 10 19.3056C9.70803 19.3056 9.42117 19.226 9.16816 19.0749C8.91515 18.9238 8.70486 18.7064 8.55835 18.4445" stroke="#E7D0D0" stroke-linecap="round" stroke-linejoin="round"/>
</svg>
