<svg width="20" height="22" viewBox="0 0 20 22" fill="none" xmlns="http://www.w3.org/2000/svg">
<path d="M17.675 14.0284C17.1448 15.3286 16.3156 16.4743 15.2599 17.3653C14.2041 18.2564 12.954 18.8657 11.6187 19.1399C10.2834 19.4142 8.90368 19.3451 7.60011 18.9386C6.29655 18.5321 5.10884 17.8007 4.14084 16.8082C3.17283 15.8158 2.454 14.5925 2.04719 13.2454C1.64037 11.8983 1.55796 10.4683 1.80715 9.08055C2.05635 7.69277 2.62957 6.38943 3.4767 5.28447C4.32382 4.17951 5.41906 3.30657 6.66666 2.74197" stroke="white" stroke-linecap="round" stroke-linejoin="round"/>
<path d="M18.3333 10.6667C18.3333 9.53178 18.1178 8.40802 17.699 7.35952C17.2802 6.31103 16.6664 5.35835 15.8926 4.55586C15.1187 3.75338 14.2001 3.11682 13.189 2.68252C12.178 2.24822 11.0943 2.02469 10 2.02469V10.6667H18.3333Z" fill="white" stroke="white" stroke-linecap="round" stroke-linejoin="round"/>
</svg>
