<svg width="20" height="22" viewBox="0 0 20 22" fill="none" xmlns="http://www.w3.org/2000/svg">
<path d="M15 7.46915C15 6.09395 14.4732 4.77508 13.5355 3.80267C12.5979 2.83026 11.3261 2.28397 10 2.28397C8.67392 2.28397 7.40215 2.83026 6.46447 3.80267C5.52678 4.77508 5 6.09395 5 7.46915C5 13.5185 2.5 15.2469 2.5 15.2469H17.5C17.5 15.2469 15 13.5185 15 7.46915Z" fill="white" stroke="white" stroke-linecap="round" stroke-linejoin="round"/>
<path d="M11.4417 18.7037C11.2952 18.9657 11.0849 19.1831 10.8319 19.3342C10.5789 19.4853 10.292 19.5649 10 19.5649C9.70803 19.5649 9.42117 19.4853 9.16816 19.3342C8.91515 19.1831 8.70486 18.9657 8.55835 18.7037" stroke="white" stroke-linecap="round" stroke-linejoin="round"/>
</svg>
